<svg width="501" height="503" viewBox="0 0 501 503" fill="none" xmlns="http://www.w3.org/2000/svg">
<circle cx="250.5" cy="250.5" r="250.5" fill="#F8F8F8"/>
<path d="M142 307C100.689 294.718 43.4787 310.052 14.91 321.105C11.5331 322.412 9.85121 326.139 10.9628 329.585L19 354.5C43.8333 410.833 130.2 518.9 277 500.5C409.942 483.837 469.266 385.272 486.832 324.601C488.611 318.457 482.247 314.819 476.821 318.209C468.009 323.714 455.691 328.045 439.5 323.5C402.461 313.103 368.5 315 321 329.5C273.5 344 197.5 323.5 142 307Z" fill="#796756"/>
<path d="M236.706 88.7768L221.835 164.24C216.922 198.18 241.87 203.934 254.958 202.569C281.235 195.323 279.774 171.714 275.759 160.815L256.232 124.796L236.706 88.7768Z" fill="#9BF0F5"/>
<circle cx="261.355" cy="172.324" r="8.70735" transform="rotate(4.64786 261.355 172.324)" fill="white"/>
<path d="M336.317 155.43L282.266 210.151C259.437 235.741 277.064 254.309 288.732 260.394C314.644 268.855 326.456 248.361 329.123 237.057L332.72 196.243L336.317 155.43Z" fill="#9BF0F5"/>
<circle cx="310.76" cy="238.704" r="8.70735" transform="rotate(38.1475 310.76 238.704)" fill="white"/>
<path d="M157.976 160.239L170.168 236.182C177.316 269.722 202.713 266.477 214.518 260.662C236.658 244.762 227.108 223.121 219.566 214.288L188.771 187.264L157.976 160.239Z" fill="#9BF0F5"/>
<circle cx="210.041" cy="230.074" r="8.70735" transform="rotate(-15.6208 210.041 230.074)" fill="white"/>
</svg>
